<svg xmlns="http://www.w3.org/2000/svg" version="1.1" viewBox="0.5 0.19 1468.08 591.81" width="498.5415622798046" height="200.58508169851515"><path d="M 196.786 0.995 C 13.486 1.475, 3.984 1.587, 2.286 3.286 C 0.584 4.988, 0.500 14.176, 0.500 199.286 C 0.500 306.104, 0.823 394.287, 1.219 395.250 C 1.900 396.908, 12.096 397, 195.518 397 C 409.314 397, 394.016 397.478, 395.738 390.748 C 396.195 388.962, 396.329 356.331, 396.035 318.236 L 395.500 248.972 386 255.867 C 363.949 271.869, 286.160 315.006, 245.077 334.014 C 181.777 363.300, 150.871 372.151, 111.500 372.271 C 87.621 372.343, 76.758 368.875, 65.388 357.549 C 55.944 348.142, 54.527 344.747, 54.520 331.500 C 54.514 322.783, 54.996 318.943, 56.842 313 C 63.753 290.743, 78.119 270.798, 114.403 233.084 C 118.856 228.456, 140.725 209.312, 163 190.543 C 197.504 161.469, 209.570 152.036, 244.500 126.834 C 284.249 98.154, 330.803 66.665, 341.340 61.330 C 344.178 59.893, 349.875 56.429, 354 53.632 C 358.125 50.835, 368.250 44.788, 376.500 40.195 C 384.750 35.601, 392.518 30.894, 393.761 29.736 C 397.269 26.469, 398.014 21.723, 396.668 11.207 C 395.478 1.907, 394.359 -0.254, 391 0.260 C 390.175 0.387, 302.779 0.717, 196.786 0.995 M 734.500 53.056 C 715.129 56.017, 678.536 71.353, 654.280 86.676 C 613.371 112.519, 591.373 129.658, 563.960 157.047 C 548.407 172.585, 539.665 184.237, 534.590 196.191 C 533.028 199.871, 531.140 203.116, 530.395 203.402 C 529.650 203.688, 525.094 203.049, 520.270 201.982 C 507.314 199.118, 503.754 199.316, 500.589 203.077 C 498.584 205.460, 498 207.245, 498 210.995 C 498 213.658, 498.280 216.565, 498.621 217.455 C 499.582 219.959, 504.113 221.845, 512.154 223.088 C 521.207 224.488, 526.365 226.997, 527.801 230.697 C 528.399 232.239, 529.049 238.450, 529.246 244.500 C 529.600 255.389, 529.649 255.580, 534.052 263.436 C 539.684 273.486, 546.640 280.512, 555.638 285.240 C 564.908 290.112, 573.204 291.967, 585.792 291.985 C 597.019 292.001, 607.680 290.172, 617.830 286.488 C 622.588 284.761, 624.852 284.385, 626.190 285.102 C 627.651 285.883, 627.811 286.484, 626.978 288.042 C 626.401 289.119, 625.585 290, 625.164 290 C 624.743 290, 622.416 293.488, 619.993 297.750 C 617.570 302.012, 608.663 316.975, 600.201 331 C 582.840 359.772, 558.214 408.085, 553.196 423.217 C 547.895 439.205, 549.242 447.642, 558.381 455.686 C 564.672 461.224, 569.346 463.313, 576.500 463.785 C 587.521 464.513, 599.543 457.755, 605.593 447.432 C 607.001 445.028, 611.446 433.035, 615.469 420.781 C 629.915 376.780, 641.372 349.736, 667.565 297.804 C 679.497 274.146, 698.980 242.002, 710.459 227.035 C 722.730 211.036, 736.993 186.838, 743.083 171.688 C 744.911 167.141, 745.141 165.705, 744.141 165.087 C 742.175 163.872, 719.050 162.978, 714.142 163.928 C 707.653 165.183, 704.975 167.780, 700.003 177.641 C 692.549 192.422, 672.722 216.933, 654.890 233.412 C 642.458 244.899, 625.780 254.829, 605.513 262.810 C 597.835 265.833, 595.349 266.351, 588.729 266.303 C 574.648 266.203, 567.961 262.640, 566.419 254.418 C 565.804 251.140, 568.466 233.383, 569.892 231.248 C 570.226 230.748, 573.934 228.035, 578.132 225.219 C 583.654 221.514, 587.663 219.664, 592.632 218.526 C 616.308 213.107, 638.792 202.125, 673.500 179.027 C 680.650 174.269, 689.425 168.637, 693 166.511 C 717.764 151.784, 733.221 139.676, 752.212 120.127 C 768.480 103.382, 774.102 95.619, 777.137 85.714 C 781.174 72.540, 776.220 60.736, 764 54.413 C 759.901 52.292, 744.219 51.571, 734.500 53.056 M 364 73.130 C 326.986 99.209, 312.355 109.988, 281.718 133.747 C 255.304 154.231, 250.280 158.324, 235.412 171.467 C 230.414 175.885, 220.995 183.998, 214.482 189.496 C 200.337 201.435, 163.804 239.506, 155.838 250.609 C 139.107 273.925, 133.072 295.164, 139.387 308.500 C 147.594 325.830, 166.057 328.900, 209 320.074 C 223.828 317.026, 232.857 314.414, 241.225 310.750 C 246.136 308.600, 250.827 304.494, 249.682 303.348 C 249.319 302.985, 244.482 302.064, 238.933 301.301 C 225.052 299.392, 218.561 296.824, 212.857 290.984 C 209.286 287.327, 207.964 285.058, 207.126 281.153 C 205.217 272.252, 208.380 261.403, 216.519 248.928 C 219.185 244.843, 222.871 239.025, 224.709 236 C 226.547 232.975, 233.423 224.815, 239.989 217.866 C 257.481 199.353, 291.585 167.045, 298.429 162.503 C 301.691 160.338, 308.240 154.952, 312.984 150.534 C 317.728 146.115, 330.585 136.208, 341.555 128.519 C 352.525 120.829, 366.140 110.812, 371.811 106.258 C 377.482 101.704, 383.838 97.103, 385.935 96.033 C 393.938 91.950, 397.449 84.939, 397.469 73 C 397.483 64.448, 395.271 52.988, 393.613 53.024 C 393.001 53.038, 379.675 62.085, 364 73.130 M 1031 58.812 C 1024.134 61.595, 1018.305 65.616, 1010.554 72.917 C 1006.674 76.570, 1002 80.616, 1000.167 81.907 C 998.334 83.198, 994.509 87.046, 991.667 90.458 C 988.825 93.871, 980.926 102.701, 974.112 110.081 C 956.923 128.701, 942.682 146.699, 930.262 165.500 C 890.261 226.050, 883.406 235.620, 871.399 247.672 C 864.183 254.914, 853.199 261.674, 850.396 260.598 C 847.418 259.456, 848.741 251.275, 853.627 240.616 C 857.462 232.251, 861.017 227.007, 874.376 210.011 C 891.097 188.738, 896.015 180.905, 895.978 175.609 C 895.945 170.965, 892.687 164.649, 887.419 159.017 C 878.515 149.498, 871.210 149.910, 860.420 160.542 C 854.872 166.009, 853.574 166.842, 851.956 165.977 C 850.906 165.414, 849.535 164, 848.911 162.833 C 846.671 158.649, 839.497 151.779, 835.040 149.552 C 825.184 144.627, 816.018 145.524, 800.391 152.943 C 784.917 160.290, 773.816 168.134, 761.434 180.473 C 743.953 197.892, 733.770 214.760, 724.802 241.148 C 721.134 251.940, 720.598 254.636, 720.552 262.500 C 720.509 269.991, 720.878 272.208, 722.756 275.722 C 730.257 289.759, 744.578 295.926, 763.028 293.064 C 771.854 291.694, 782.155 287.525, 788.846 282.613 C 791.553 280.626, 794.280 279, 794.906 279 C 795.532 279, 798.052 277.149, 800.506 274.888 C 806.012 269.813, 809.397 269.970, 810.405 275.347 C 811.910 283.365, 820.170 291.617, 829.116 294.037 C 841.558 297.402, 854.935 292.015, 877.500 274.551 C 881.900 271.146, 886.022 268.052, 886.660 267.676 C 887.393 267.245, 889.511 269.924, 892.408 274.946 C 903.790 294.678, 914.648 297.665, 935.212 286.721 C 940.870 283.710, 947.075 280.737, 949 280.114 C 950.925 279.492, 954.718 277.224, 957.430 275.075 L 962.360 271.166 967.266 278.333 C 976.145 291.302, 983.481 297.159, 993.320 299.135 C 1004.593 301.399, 1021.283 295.278, 1037.500 282.931 C 1045.104 277.142, 1050.933 273.470, 1051.400 274.176 C 1051.518 274.354, 1052.881 277.801, 1054.429 281.836 C 1058.162 291.565, 1062.862 296.557, 1069.179 297.504 C 1074.124 298.246, 1085.846 296.671, 1092.279 294.402 C 1107.019 289.201, 1130.959 264.703, 1164.988 220 C 1186.813 191.328, 1207.395 168, 1210.866 168 C 1213.099 168, 1216.990 170.393, 1217.532 172.100 C 1218.589 175.431, 1214.985 189.075, 1210.870 197.317 C 1195.840 227.422, 1171.721 249.779, 1143.204 260.037 C 1139.741 261.282, 1136.096 263.334, 1135.104 264.595 C 1132.523 267.876, 1130.502 283.435, 1131.955 288.833 C 1134.114 296.852, 1140.552 302, 1148.422 302 C 1153.784 302, 1167.905 297.073, 1172.426 293.624 C 1174.175 292.290, 1178.508 289.883, 1182.053 288.275 C 1186.043 286.466, 1192.091 282.235, 1197.921 277.176 C 1203.103 272.679, 1208.096 269, 1209.016 269 C 1211.217 269, 1213.192 271.344, 1216.420 277.784 C 1221.851 288.622, 1231.702 295.325, 1244 296.553 C 1258.659 298.017, 1272.238 292.913, 1283.166 281.832 C 1286.871 278.074, 1290.276 275, 1290.731 275 C 1291.186 275, 1293.911 277.499, 1296.786 280.554 C 1299.661 283.609, 1303.698 286.824, 1305.757 287.698 C 1310.562 289.740, 1319.040 289.723, 1325.873 287.658 C 1328.829 286.765, 1331.691 286.309, 1332.234 286.644 C 1334.199 287.859, 1331.883 294.686, 1320.122 322.344 C 1285.375 404.052, 1277.225 427.203, 1275.335 449.569 L 1274.708 456.988 1278.309 460.385 C 1284.993 466.688, 1294.948 468.334, 1311.501 465.872 C 1322.959 464.168, 1327.858 459.917, 1329.901 449.906 C 1331.483 442.156, 1334.040 432.176, 1342.050 402.500 C 1353.862 358.736, 1361.517 336.867, 1373.076 313.861 C 1375.939 308.163, 1382.973 292.925, 1388.707 280 C 1400.074 254.376, 1404.634 245.427, 1421.317 216 C 1433.234 194.980, 1442.443 179.744, 1450.167 168.269 C 1452.844 164.293, 1455.507 159.797, 1456.084 158.280 C 1458.700 151.399, 1453.313 143.703, 1444.158 141.239 C 1431.485 137.828, 1421.717 139.984, 1414.409 147.806 C 1412.510 149.838, 1398.312 170.175, 1382.858 193 C 1362.641 222.858, 1352.764 236.535, 1347.649 241.756 C 1343.738 245.747, 1339.765 249.257, 1338.819 249.557 C 1335.955 250.467, 1330.964 247.159, 1329.342 243.276 C 1327.546 238.977, 1328.352 234.860, 1333.034 224.423 C 1338.635 211.941, 1361.880 175.190, 1373.450 160.526 C 1378.646 153.940, 1376.674 146.638, 1368.617 142.635 C 1363.845 140.264, 1349.772 139.260, 1344.713 140.930 C 1338.975 142.823, 1323.927 160.464, 1317.782 172.500 C 1316.658 174.700, 1304.999 193.415, 1291.871 214.089 C 1269.312 249.618, 1267.593 252.028, 1260.512 258.056 C 1256.392 261.563, 1251.847 265.048, 1250.412 265.800 C 1244.868 268.705, 1238 263.898, 1238 257.114 C 1238 249.306, 1248.678 225.059, 1257.207 213.500 C 1264.724 203.313, 1272.623 195.478, 1290.395 180.583 C 1315.830 159.266, 1317 158.081, 1317 153.630 C 1317 148.841, 1315.042 145.122, 1310.352 141.004 C 1302.049 133.714, 1292.831 131.679, 1283.054 134.978 C 1274.416 137.893, 1267.711 142.512, 1255.922 153.671 C 1250.502 158.802, 1245.398 163, 1244.580 163 C 1243.763 163, 1241.161 160.582, 1238.797 157.626 C 1236.434 154.670, 1232.310 150.739, 1229.633 148.889 C 1225.376 145.949, 1223.822 145.479, 1217.243 145.147 C 1208.141 144.688, 1203.668 145.889, 1194.500 151.256 C 1183.137 157.907, 1171.066 171.155, 1142.797 208 C 1105.463 256.659, 1104.334 257.909, 1093.689 262.357 L 1089.922 263.930 1090.581 260.215 C 1092.657 248.515, 1103.639 228.200, 1122.431 201.298 C 1138.523 178.262, 1138.964 177.470, 1138.984 171.566 C 1138.999 166.952, 1138.679 166.323, 1134.044 161.855 C 1127.632 155.675, 1120.385 152, 1114.610 152 C 1109.734 152, 1104.346 155.398, 1097.032 163.088 C 1094.985 165.239, 1092.802 167, 1092.181 167 C 1091.559 167, 1090.298 165.537, 1089.377 163.750 C 1086.317 157.808, 1083.062 154.352, 1077.754 151.411 C 1072.771 148.650, 1071.882 148.500, 1060.500 148.500 C 1046.449 148.500, 1039.790 150.410, 1028.996 157.534 C 1020.688 163.017, 983.972 202.544, 956.111 236 C 949.927 243.425, 943.073 251.637, 940.879 254.250 C 937.886 257.813, 936.197 259, 934.119 259 C 930.910 259, 927 255.346, 927 252.347 C 927 249.294, 935.975 231.671, 942.709 221.500 C 949.584 211.117, 958.319 199.906, 968.417 188.502 C 997.724 155.409, 1032.891 116.912, 1046.065 103.500 C 1054.709 94.700, 1062.556 85.963, 1063.502 84.084 C 1067.498 76.153, 1063.509 66.736, 1053.522 60.525 C 1047.407 56.723, 1037.934 56.002, 1031 58.812 M 735.178 88.466 C 731.151 89.766, 723.584 92.951, 718.363 95.542 C 705.466 101.943, 675.943 121.593, 659.776 134.536 C 645.904 145.642, 598.659 191.639, 599.585 193.137 C 600.738 195.003, 604.358 193.622, 624.548 183.611 C 674.542 158.822, 721.271 125.295, 738.560 101.812 C 745.673 92.150, 746.318 90.594, 744.231 88.137 L 742.500 86.100 735.178 88.466 M 389.440 118.389 C 386.107 121.200, 375.307 130.308, 365.440 138.628 C 335.864 163.570, 313.851 185.725, 295.406 209.117 C 287.021 219.751, 279.995 232.868, 279.278 239.227 C 277.957 250.950, 287.232 259.976, 300.619 259.994 C 307.206 260.003, 321.047 257.272, 330.121 254.173 C 339.905 250.831, 372.140 234.154, 381.607 227.536 C 385.202 225.023, 389.692 222.320, 391.585 221.529 C 393.479 220.738, 395.251 219.507, 395.524 218.795 C 395.797 218.083, 395.903 194.050, 395.760 165.389 L 395.500 113.277 389.440 118.389 M 816.211 184.021 C 804.649 191.702, 787.973 209.007, 780.518 221.059 C 768.381 240.679, 760.648 259.737, 762.856 264.583 C 763.462 265.912, 764.417 267, 764.978 267 C 767.366 267, 781.661 258.089, 786.955 253.300 C 803.249 238.562, 820.775 213.580, 828.043 194.732 C 832.313 183.660, 832.730 181.007, 830.464 179.350 C 827.443 177.141, 825.712 177.709, 816.211 184.021 M 1058.944 181.751 C 1040.502 196.010, 1025.212 215.101, 1013.773 238.153 C 1007.726 250.340, 1001.862 272, 1004.610 272 C 1004.946 272, 1007.983 270.548, 1011.360 268.774 C 1020.219 264.121, 1034.569 249.328, 1045.095 234 C 1056.592 217.257, 1067.736 192.834, 1068.290 183.163 C 1068.485 179.761, 1068.286 179.482, 1065.500 179.251 C 1063.483 179.083, 1061.335 179.902, 1058.944 181.751" stroke="none" fill="#2e3192" fill-rule="evenodd"/><path d="M 69.403 472.029 C 50.945 476.992, 36.126 485.616, 22.406 499.378 C 11.991 509.826, 7.687 517.399, 6.010 528.227 C 4.765 536.273, 5.518 541.976, 8.400 546.305 C 11.140 550.422, 17.040 553.370, 20.862 552.530 C 22.440 552.184, 30.357 546.860, 38.454 540.700 C 46.552 534.540, 54.088 528.848, 55.203 528.052 C 56.901 526.839, 56.704 527.648, 53.986 533.052 C 47.318 546.315, 41.889 553.449, 28.503 566.538 C 17.664 577.136, 15.044 580.250, 14.494 583.182 C 13.186 590.153, 17.599 593.652, 23.265 590.138 C 27.080 587.772, 31.013 583.632, 36.899 575.788 C 39.256 572.646, 44.181 567.653, 47.842 564.693 C 60.030 554.839, 72.353 545.951, 73.361 546.287 C 74.501 546.667, 75.316 548.107, 77.089 552.871 C 78.686 557.165, 81.724 560, 84.728 560 C 88.278 560, 94.709 556.352, 100.178 551.236 L 105.073 546.658 106.733 549.079 C 113.642 559.151, 118.158 560.184, 128.069 553.963 C 136.645 548.580, 142.839 545.724, 144.532 546.374 C 145.295 546.667, 147.065 549.169, 148.467 551.935 C 153.512 561.890, 158.443 562.233, 169.500 553.396 C 177.764 546.792, 180.971 545, 184.527 545 C 187.372 545, 191.154 548.450, 194.514 554.108 C 198.349 560.569, 204.698 558.114, 212.144 547.290 C 216.172 541.436, 217.589 542.111, 217.161 549.679 C 216.790 556.224, 218.006 558.461, 222.550 559.602 C 225.260 560.282, 227.634 558.992, 237.109 551.694 L 243.348 546.888 245.149 551.633 C 247.583 558.046, 249.205 559.457, 253.929 559.268 C 261.201 558.978, 267.597 554.346, 274.875 544.100 C 278.652 538.782, 278.732 538, 275.501 538 C 273.938 538, 271.453 539.503, 268.865 542.015 C 262.377 548.312, 258.058 548.491, 255.160 542.583 C 253.495 539.189, 254.886 535.246, 259.598 530.007 C 264.434 524.630, 273.920 511.080, 276.739 505.522 C 283.042 493.098, 284.753 483.009, 280.907 480.950 C 277.392 479.069, 274.371 480.711, 268.385 487.754 C 257.173 500.947, 249.790 514.610, 245.555 530 C 243.311 538.155, 241.265 541.051, 235.642 544.034 C 231.882 546.029, 230.936 546.192, 229.592 545.077 C 226.988 542.915, 227.749 539.112, 232.187 532.108 C 236.019 526.060, 236.379 524.920, 236.437 518.662 C 236.493 512.622, 236.222 511.599, 234.115 509.892 C 230.907 507.294, 226.742 508.055, 216.122 513.180 C 209.920 516.174, 205.686 519.189, 199.822 524.792 C 195.465 528.955, 191.150 533.630, 190.233 535.182 C 188.211 538.606, 185.283 539.712, 183.352 537.781 C 182.119 536.547, 182.267 535.626, 184.454 530.928 C 187.633 524.098, 187.659 521.478, 184.567 519.452 C 181.484 517.432, 179.620 518.353, 174.103 524.620 C 169.715 529.605, 167.555 535.378, 168.567 539.412 C 169.034 541.273, 168.550 542.541, 166.641 544.450 C 161.770 549.321, 156.545 546.998, 156.545 539.959 C 156.545 536.478, 157.450 535.254, 167.715 524.836 C 183.007 509.317, 190.257 500.104, 195.527 489.492 C 200.637 479.202, 201.256 474.529, 197.722 472.919 C 194.140 471.287, 191.096 473.055, 181.090 482.577 C 166.012 496.926, 155.732 511.968, 149.364 529 C 147.161 534.893, 145.478 537.868, 143.877 538.700 C 142.606 539.360, 141.393 539.726, 141.181 539.514 C 140.968 539.302, 141.777 536.176, 142.977 532.568 C 145.365 525.392, 145.123 521.707, 141.917 516.422 C 139.870 513.048, 136.280 511, 132.413 511 C 125.291 511, 111.414 522.771, 106.989 532.566 C 103.762 539.710, 96.108 546.983, 91.807 546.994 C 88.663 547.001, 86 543.794, 86 540 C 86 537.112, 86.660 536.074, 96.588 523.363 C 106.126 511.151, 109.402 505.172, 112.526 494.284 C 115.435 484.141, 115.036 481.549, 110.382 480.381 C 108.214 479.837, 106.904 480.639, 101.824 485.619 C 91.136 496.099, 83.326 508.704, 79.166 522.189 C 75.390 534.429, 72.246 538.819, 63.270 544.379 C 60.943 545.821, 58.861 547, 58.642 547 C 58.155 547, 72.969 520.051, 76.479 514.550 C 79.523 509.781, 79.639 507.639, 77 505 C 73.450 501.450, 70.904 502.455, 62.422 510.750 C 49.374 523.510, 23.968 543, 20.384 543 C 18.239 543, 16 539.970, 16 537.069 C 16 528.807, 30.179 510.973, 44.789 500.857 L 52.500 495.519 62.615 495.009 C 72.502 494.512, 72.864 494.407, 78.615 490.385 C 87.997 483.825, 90.264 477.264, 84.975 471.975 C 82.516 469.516, 78.703 469.529, 69.403 472.029 M 908.290 473.416 C 888.985 479.750, 876.290 487.598, 863.700 500.981 C 853.912 511.385, 848.950 520.938, 848.258 530.706 C 847.216 545.432, 853.115 553.514, 863.486 551.569 C 865.593 551.173, 872.724 546.793, 881.625 540.427 C 889.692 534.658, 896.701 529.685, 897.202 529.375 C 898.133 528.800, 890.566 543.316, 886.189 550.500 C 881.163 558.749, 875.792 564.843, 869.429 569.514 C 859.883 576.522, 855.017 584.485, 857.765 588.600 C 858.640 589.910, 862.431 592, 863.931 592 C 865.787 592, 872.971 584.872, 879.098 576.952 C 882.356 572.740, 887.206 567.453, 889.875 565.202 C 895.121 560.779, 915.932 545.998, 916.906 546.004 C 917.233 546.006, 918.319 547.999, 919.320 550.433 C 924.328 562.611, 929.931 562.923, 943.168 551.761 L 947.955 547.725 952.778 552.862 C 956.166 556.471, 958.370 558, 960.181 558 C 962.940 558, 972.209 553.522, 980.723 548.076 C 985.737 544.868, 986.045 544.800, 988.434 546.365 C 989.946 547.356, 991.365 549.662, 992.054 552.247 C 993.382 557.236, 995.245 559.594, 998.504 560.412 C 1001.998 561.288, 1005.814 559.458, 1012.359 553.768 C 1022.724 544.755, 1029.323 542.742, 1032.703 547.562 C 1041.472 560.068, 1044.373 560.404, 1054.462 550.078 C 1060.014 544.397, 1062.552 543.417, 1060.975 547.565 C 1059.156 552.351, 1059.770 556.803, 1062.496 558.589 C 1066.257 561.054, 1071.342 559.668, 1076.864 554.675 C 1086.574 545.894, 1085.447 546.113, 1088.345 552.442 C 1091.996 560.417, 1095.998 561.499, 1105 556.946 C 1110.103 554.364, 1120 543.020, 1120 539.752 C 1120 538.012, 1114.803 540.029, 1110.599 543.402 C 1104.819 548.038, 1104.314 548.238, 1101.771 546.883 C 1094.446 542.981, 1095.502 536.876, 1105.354 526.159 C 1114.459 516.254, 1119.986 506.988, 1123.901 495.063 C 1126.410 487.421, 1126.526 484.669, 1124.429 482.571 C 1120.976 479.119, 1117.655 480.548, 1110.883 488.401 C 1102.173 498.500, 1095.810 509.411, 1090.997 522.500 C 1085.343 537.875, 1083.457 541.655, 1080.458 543.619 C 1078.507 544.898, 1077.194 545.099, 1075.276 544.416 C 1070.638 542.762, 1070.270 540.694, 1073.645 535.264 C 1080.312 524.540, 1081.803 514.712, 1077.427 510.336 C 1074.109 507.018, 1071.129 507.458, 1059.894 512.922 C 1050.075 517.699, 1041.106 524.731, 1035.614 531.960 C 1031.552 537.307, 1028.636 539.511, 1026.979 538.487 C 1025.470 537.555, 1025.808 534.643, 1027.978 529.859 C 1030.381 524.564, 1030.508 521.651, 1028.429 519.571 C 1026.083 517.226, 1024.419 517.627, 1020.025 521.597 C 1014.182 526.875, 1011.755 531.404, 1011.086 538.281 C 1010.603 543.237, 1010.039 544.637, 1007.875 546.249 C 1004.460 548.792, 1001.620 547.409, 999.966 542.398 C 998.540 538.077, 997.623 539.404, 1014.889 520.828 C 1028.848 505.810, 1035.678 496.705, 1040.617 486.528 C 1044.672 478.171, 1044.768 476.749, 1041.452 474.141 C 1037.500 471.032, 1034.273 472.858, 1021.608 485.370 C 1006.909 499.892, 995.594 517.135, 990.456 532.846 C 989.517 535.716, 987.905 538.515, 986.874 539.067 C 984.522 540.326, 984.492 539.496, 986.554 530.365 C 987.866 524.556, 987.905 522.870, 986.804 519.529 C 985.326 515.044, 980.223 510.987, 976.102 511.022 C 968.731 511.084, 956.659 520.724, 951.840 530.396 C 948.644 536.812, 942.222 544.265, 938 546.460 C 934.568 548.244, 931.370 546.844, 929.390 542.692 C 927.379 538.474, 928.252 536.526, 936.656 526.490 C 944.387 517.256, 950.460 507.507, 953.976 498.686 C 958.212 488.057, 958.647 484.647, 956.094 482.094 C 954.942 480.942, 953.230 480, 952.288 480 C 950.039 480, 938.479 491.896, 933.338 499.500 C 927.779 507.722, 925.608 512.211, 922.425 522.062 C 919.104 532.337, 916.646 536.380, 910.343 541.934 C 905.734 545.995, 900 549.650, 900 548.527 C 900 548.239, 904.950 539.552, 911 529.222 C 917.050 518.892, 922 509.699, 922 508.793 C 922 506.975, 917.486 503, 915.423 503 C 914.704 503, 908.802 507.774, 902.308 513.609 C 883.473 530.531, 867.660 542, 863.162 542 C 861.997 542, 860.295 540.854, 859.375 539.450 C 857.785 537.024, 857.821 536.653, 860.102 531.777 C 867.437 516.103, 882.175 502.394, 902.750 492.104 C 910.829 488.063, 912.241 488.040, 909.775 491.989 C 908.814 493.528, 908.812 494.212, 909.765 495.165 C 910.718 496.118, 911.720 496.027, 914.416 494.741 C 920.626 491.780, 928.228 485.687, 929.507 482.646 C 932.015 476.681, 927.826 469.968, 921.639 470.033 C 919.913 470.052, 913.906 471.574, 908.290 473.416 M 1200.660 471.981 C 1193.592 473.264, 1182.503 476.747, 1174.500 480.198 C 1161.312 485.884, 1154.564 495.564, 1160 501 C 1164.207 505.207, 1172.925 502.950, 1181.200 495.510 C 1187.057 490.244, 1192 488.571, 1206.211 487.044 C 1220.785 485.477, 1223.480 485.649, 1226.611 488.342 C 1230.130 491.368, 1230.352 496.487, 1227.079 499.137 C 1223.782 501.807, 1206.425 507.145, 1203.460 506.401 C 1200.217 505.587, 1200.348 504.727, 1204.402 500.241 C 1208.439 495.771, 1209.296 492.736, 1206.671 492.198 C 1203.229 491.492, 1200.494 492.959, 1193 499.531 C 1183.176 508.146, 1177.942 511.172, 1170.564 512.501 C 1165.647 513.387, 1164.443 513.982, 1164.200 515.649 C 1164.009 516.958, 1164.813 518.303, 1166.415 519.352 C 1171.330 522.573, 1171.347 524.204, 1166.531 530.405 C 1161.207 537.262, 1159.599 541.749, 1160.285 547.836 C 1161.296 556.802, 1169.121 560.631, 1184.500 559.685 C 1197.573 558.880, 1208.802 554.503, 1217.591 546.786 C 1230.181 535.732, 1224.139 525.172, 1201.928 519.411 C 1198.118 518.423, 1195 517.350, 1195 517.028 C 1195 516.705, 1199.838 515.154, 1205.750 513.582 C 1224.497 508.595, 1233.958 503.341, 1238.672 495.296 C 1240.788 491.687, 1241.160 490.016, 1240.765 485.906 C 1240.156 479.568, 1236.552 475.556, 1229.540 473.410 C 1223.487 471.558, 1207.383 470.761, 1200.660 471.981 M 360.782 481.504 C 348.943 484.476, 336.778 492.594, 332.966 500.068 C 330.662 504.582, 330.419 510.983, 332.405 514.800 C 335.689 521.111, 341.695 524.442, 357.878 528.927 C 373.199 533.173, 375.798 534.349, 376.559 537.377 C 376.905 538.757, 376.904 540.346, 376.557 540.908 C 376.209 541.470, 371.555 543.335, 366.213 545.051 C 353.878 549.015, 341.160 549.947, 333 547.485 C 322.518 544.322, 320.370 544.392, 316.989 548.012 C 311.413 553.981, 311.860 559.944, 318.128 563.191 C 328.220 568.418, 357.915 566.672, 373.670 559.925 C 383.117 555.880, 389.994 546.110, 388.605 538.706 C 387.005 530.177, 374.605 521.968, 355 516.459 C 343.845 513.324, 342.156 512.148, 343.758 508.631 C 345.117 505.650, 355.445 500.390, 362.500 499.087 C 371.094 497.500, 384 496.666, 384 497.697 C 384 498.222, 382.875 499.708, 381.500 501 C 380.125 502.292, 379 503.945, 379 504.674 C 379 506.997, 382.657 506.118, 391.163 501.750 C 402.971 495.686, 406.930 488.841, 402.089 482.861 C 400.231 480.566, 399.705 480.494, 383.339 480.284 C 371.393 480.131, 364.838 480.485, 360.782 481.504 M 581.871 486.760 C 571.469 497.798, 566.574 506.074, 558.962 525.500 C 553.998 538.167, 549.308 543.929, 542.239 546.047 C 539.900 546.747, 537.737 547.070, 537.431 546.764 C 537.124 546.458, 539.882 542.481, 543.559 537.926 C 554.631 524.213, 556.182 520.182, 552 516 C 548.836 512.836, 545.853 513.584, 536.109 519.982 C 531.099 523.271, 527 525.556, 527 525.058 C 527 524.561, 530.964 519.265, 535.810 513.289 C 546.912 499.597, 546.542 500.256, 544.443 497.937 C 541.207 494.361, 537.785 495.439, 532.332 501.750 C 512.409 524.807, 505.817 533.270, 507.129 534.101 C 509.197 535.411, 509.639 535.256, 513.499 531.867 C 515.461 530.144, 517.250 528.917, 517.474 529.141 C 518.352 530.019, 513.672 538.698, 506.571 549.361 C 502.476 555.511, 498.138 562.783, 496.932 565.521 C 494.544 570.945, 492.943 586, 494.755 586 C 496.408 586, 503.074 578.067, 504.720 574.140 C 505.560 572.138, 506.899 568.309, 507.698 565.630 C 510.390 556.596, 514.967 554.313, 524 557.500 C 526.338 558.325, 529.657 558.996, 531.376 558.990 C 535.619 558.977, 543.923 554.968, 548.761 550.597 C 554.049 545.820, 555.470 545.996, 557.402 551.667 C 559.463 557.716, 561.615 560, 565.254 560 C 569.292 560, 573.513 557.833, 580.471 552.188 L 586.374 547.399 588.937 552.449 C 591.089 556.691, 592.103 557.649, 595.262 558.429 C 599.869 559.567, 603.524 558.038, 610.384 552.101 C 612.990 549.845, 615.447 548, 615.845 548 C 616.243 548, 617.336 549.300, 618.275 550.888 C 621.544 556.423, 626.658 560.001, 631.285 559.991 C 638.817 559.974, 646.735 554.025, 664.880 534.750 C 669.390 529.959, 671.951 528, 673.701 528 C 675.057 528, 676.013 528.337, 675.825 528.750 C 675.637 529.163, 673.800 532.751, 671.742 536.725 C 665.985 547.841, 666.891 554.107, 674.684 557.070 C 678.752 558.617, 683.418 556.488, 688.372 550.825 C 694.200 544.163, 695.710 541.310, 694.207 539.807 C 692.969 538.569, 691.562 539.087, 685.310 543.078 L 682.121 545.114 680.489 542.624 C 678.461 539.529, 679.162 537.995, 686.638 529.170 C 692.328 522.453, 693.238 519.213, 690.523 515.337 C 688.560 512.534, 684.803 511.707, 679.958 513.011 C 676.733 513.880, 675.054 513.746, 670.974 512.297 C 666.421 510.680, 665.702 510.656, 663.228 512.041 C 659.931 513.886, 658.133 518.664, 658.056 525.782 C 657.953 535.506, 655.320 539.078, 643.591 545.408 C 638.863 547.960, 635.947 548.953, 634.354 548.553 C 631.777 547.906, 628.492 543.631, 629.419 542.132 C 629.744 541.606, 633.412 539.308, 637.570 537.026 C 646.944 531.881, 652.262 527.156, 654.967 521.568 C 658.201 514.888, 655.380 509.985, 648.316 510.010 C 640.729 510.036, 626.495 520.723, 619.844 531.386 C 615.391 538.527, 611.493 542.474, 606.811 544.585 C 603.200 546.214, 602.529 546.247, 600.148 544.914 C 595.661 542.404, 596.343 540.160, 604.462 530.708 C 609.978 524.287, 612 521.179, 612 519.122 C 612 515.618, 609.226 513, 605.515 513 C 602.102 513, 595.052 520.204, 589.990 528.865 C 584.542 538.185, 582.605 540.738, 578.514 543.989 C 573.661 547.846, 570.282 547.691, 567.874 543.500 C 565.329 539.072, 566.431 536.034, 573.748 527.299 C 587.043 511.431, 593.578 499.230, 594.745 488.100 C 595.217 483.593, 595.005 482.477, 593.464 481.350 C 590.230 478.985, 588.389 479.844, 581.871 486.760 M 1424.212 484.750 C 1422.677 486.945, 1413.012 503.731, 1409.099 511 C 1408.521 512.072, 1405.857 512.669, 1399.754 513.092 C 1387.295 513.955, 1382.226 517.317, 1371.313 531.956 C 1366.342 538.625, 1358.586 545.358, 1356.620 544.712 C 1354.091 543.880, 1355.174 540.171, 1359.713 534.119 C 1367.157 524.196, 1367.989 522.717, 1367.995 519.405 C 1368.001 515.713, 1365.352 513, 1361.741 513 C 1359.219 513, 1355.894 516.257, 1336.901 537.336 C 1334.328 540.191, 1332.807 541.140, 1331.565 540.663 C 1330.058 540.085, 1330.459 539.097, 1334.568 533.248 C 1337.175 529.537, 1340.139 525.571, 1341.154 524.436 C 1343.287 522.051, 1343.509 519.909, 1341.800 518.200 C 1338.053 514.453, 1330.986 519.645, 1323.098 531.942 C 1317.851 540.122, 1313.012 545, 1310.146 545 C 1307.637 545, 1304 542.143, 1304 540.171 C 1304 539.228, 1305.360 536.805, 1307.023 534.788 C 1315.512 524.490, 1314.822 508, 1305.902 508 C 1298.922 508, 1276.434 521.969, 1271.096 529.620 C 1266.480 536.237, 1261.096 541.852, 1257.620 543.675 C 1254.961 545.070, 1254.591 545.036, 1252.778 543.222 C 1250.967 541.411, 1250.931 541.036, 1252.319 538.380 C 1253.146 536.796, 1256.113 532.658, 1258.911 529.184 C 1264.149 522.682, 1264.903 520.076, 1262.848 515.566 C 1261.378 512.340, 1259.031 511.620, 1254.284 512.938 C 1252.203 513.516, 1247.575 513.993, 1244 513.998 C 1236.570 514.009, 1231.579 516.346, 1229.975 520.566 C 1228.678 523.978, 1228.699 541, 1230 541 C 1231.227 541, 1233.690 538.584, 1237.335 533.805 C 1240.074 530.214, 1245.307 527, 1248.414 527 C 1249.760 527, 1249.634 527.619, 1247.649 530.764 C 1239.192 544.161, 1237.911 551.065, 1243.077 555.411 C 1247.929 559.494, 1251.055 558.884, 1258 552.500 C 1265.236 545.848, 1267.215 545.580, 1269.368 550.962 C 1271.247 555.658, 1274.976 558.460, 1278.049 557.484 C 1279.230 557.110, 1282.632 554.597, 1285.609 551.901 C 1288.586 549.206, 1291.409 547, 1291.883 547 C 1292.358 547, 1292.969 549.326, 1293.242 552.168 C 1293.787 557.837, 1295.638 560, 1299.944 560 C 1302.751 560, 1310.944 554.599, 1315.194 549.948 C 1316.675 548.327, 1318.353 547, 1318.923 547 C 1319.493 547, 1320.862 548.769, 1321.965 550.932 C 1325.738 558.327, 1327.588 557.719, 1336.938 546.010 C 1343.019 538.394, 1350 531.647, 1350 533.384 C 1350 533.671, 1348.200 537.323, 1346 541.500 C 1343.800 545.677, 1342 550.374, 1342 551.937 C 1342 555.042, 1344.626 558.785, 1347 559.062 C 1350.594 559.481, 1352.233 558.651, 1359.686 552.633 L 1367.571 546.267 1370.405 550.209 C 1375.809 557.728, 1379.432 557.354, 1390.755 548.108 C 1394.195 545.298, 1397.135 543, 1397.288 543 C 1397.440 543, 1397.391 546.091, 1397.177 549.869 C 1396.822 556.153, 1396.988 556.878, 1399.117 558.369 C 1400.397 559.266, 1403.361 560, 1405.704 560 C 1409.564 560, 1410.596 559.403, 1416.731 553.615 L 1423.500 547.229 1427.895 551.129 C 1432.979 555.641, 1441.294 558.514, 1446.267 557.478 C 1451.186 556.453, 1457.476 552.453, 1460.761 548.263 C 1464.215 543.857, 1466.351 540.017, 1465.707 539.373 C 1465.456 539.123, 1461.798 540.736, 1457.578 542.959 C 1453.358 545.182, 1449.271 547, 1448.495 547 C 1447.720 547, 1449.298 544.931, 1452.001 542.402 C 1458.485 536.337, 1461 531.016, 1461 523.362 C 1461 517.177, 1458.728 508.554, 1456.457 506.120 C 1454.597 504.128, 1450.783 505.445, 1448.924 508.722 C 1442.932 519.282, 1414.861 548, 1410.532 548 C 1406.914 548, 1405.827 545.187, 1407.018 538.907 C 1408.302 532.135, 1410.844 526.669, 1420.697 509.500 C 1429.700 493.811, 1433 487.538, 1433 486.111 C 1433 484.489, 1429.971 482, 1427.997 482 C 1426.973 482, 1425.270 483.238, 1424.212 484.750 M 182.988 491.250 C 177.407 496.895, 169.678 507.722, 166.033 515 L 163.780 519.500 167.959 515.500 C 173.366 510.325, 181.925 499.051, 185.990 491.750 C 187.750 488.587, 188.963 486, 188.685 486 C 188.407 486, 185.843 488.363, 182.988 491.250 M 1024.602 493.063 C 1018.672 499.469, 1013.129 507.225, 1008.568 515.500 L 1005.812 520.500 1010.877 515.212 C 1013.662 512.304, 1017.916 507.354, 1020.328 504.212 C 1024.680 498.545, 1031.639 487, 1030.703 487 C 1030.435 487, 1027.690 489.728, 1024.602 493.063 M 766.150 495.341 C 764.940 496.628, 761.600 498.715, 758.725 499.979 C 743.570 506.643, 740.877 508.228, 738.431 511.925 C 735.291 516.669, 736.003 518.603, 741.142 519.292 C 743.355 519.589, 745.412 520.079, 745.715 520.381 C 746.017 520.683, 743.938 523.476, 741.095 526.586 C 733.227 535.195, 732.768 536.486, 733.592 547.707 C 734.373 558.355, 735.809 561, 740.804 561 C 744.064 561, 751.650 556.453, 757.797 550.814 C 760.161 548.646, 762.845 547.016, 763.762 547.193 C 764.679 547.369, 766.473 549.086, 767.749 551.007 C 772.045 557.479, 772.755 558, 777.281 558 C 780.686 558, 783.239 556.976, 789.541 553.083 C 801.884 545.458, 802.463 544.889, 801.330 541.490 C 800.643 539.430, 800.771 537.451, 801.779 534.554 C 803.544 529.483, 803.712 520.200, 802.095 517.178 C 800.476 514.152, 795.188 511.008, 791.710 511.004 C 788.109 510.999, 782.705 513.786, 776.470 518.864 C 772.902 521.770, 770.372 525.111, 767.500 530.706 C 764.008 537.510, 762.695 539.040, 757.159 542.750 C 750.821 546.998, 747.694 547.932, 746.465 545.944 C 745.538 544.444, 748.868 531.206, 751.279 526.809 C 753.156 523.384, 755.708 521.650, 764.717 517.675 C 769.098 515.743, 774 505.907, 774 499.051 C 774 492.894, 770.155 491.077, 766.150 495.341 M 612.135 496.357 C 607.135 501.678, 608.785 509, 614.983 509 C 620.578 509, 625.545 498.945, 621.800 495.200 C 619.757 493.157, 614.556 493.779, 612.135 496.357 M 269.563 497.544 C 265.446 503.828, 261.651 510.814, 259.833 515.457 L 257.858 520.500 262.011 516.500 C 267.525 511.190, 270.850 505.372, 271.632 499.669 C 272.360 494.358, 271.936 493.923, 269.563 497.544 M 482.376 497.912 C 480.658 498.960, 477.653 501.771, 475.699 504.159 C 473.745 506.546, 466.992 514.800, 460.693 522.500 C 449.093 536.679, 441.063 544, 437.110 544 C 432.199 544, 433.378 540.687, 444.186 524.122 C 449.061 516.650, 449.976 513.376, 447.800 511.200 C 444.922 508.322, 442.346 510.162, 427.021 526.041 C 415.720 537.750, 410.999 542.001, 409.531 541.790 C 405.424 541.198, 406.803 538.058, 415.177 528.930 C 424.918 518.311, 425.885 516.441, 423.086 513.641 C 416.890 507.445, 401.292 523.216, 397.880 539.125 C 395.876 548.470, 400.187 556, 407.541 556 C 410.309 556, 411.815 554.918, 417.318 548.973 L 423.824 541.947 422.380 547.478 C 421.302 551.606, 421.213 553.529, 422.028 555.053 C 423.382 557.581, 427.575 559.270, 430.329 558.395 C 434.710 557.005, 448.541 545.287, 455.850 536.775 C 460.856 530.944, 463.613 528.412, 463.826 529.448 C 464.006 530.319, 460.353 536.987, 455.709 544.266 C 445.283 560.608, 438 574.293, 438 577.543 C 438 580.506, 441.469 584.245, 443.811 583.808 C 445.786 583.439, 451.516 573.094, 454.500 564.509 C 457.122 556.967, 459.229 555.692, 467.500 556.644 C 480.266 558.113, 487.797 556.444, 495.743 550.383 C 499.477 547.534, 506.667 537.333, 505.654 536.320 C 505.296 535.963, 501.966 537.750, 498.252 540.292 C 491.516 544.902, 487.183 547, 484.399 547 C 483.500 547, 485.484 543.651, 489.504 538.383 C 500.502 523.969, 502.357 518.159, 496.931 515.128 C 493.722 513.335, 490.802 514.034, 484.754 518.039 C 474.915 524.557, 475.551 519.435, 486.050 507.608 C 489.322 503.921, 492 500.546, 492 500.107 C 492 498.841, 488.483 496, 486.921 496.004 C 486.140 496.006, 484.094 496.865, 482.376 497.912 M 580.398 500 C 576.490 505.669, 575.572 507.429, 573.037 514.104 L 570.988 519.500 575.139 515 C 579.877 509.863, 584.294 501.090, 583.820 497.756 C 583.537 495.758, 583.146 496.014, 580.398 500 M 943.113 499.857 C 939.399 504.546, 933.649 516.448, 934.241 518.222 C 934.930 520.290, 943.867 507.187, 945.486 501.734 C 946.315 498.943, 946.824 496.491, 946.617 496.284 C 946.410 496.077, 944.834 497.685, 943.113 499.857 M 100.287 500.265 C 96.923 503.802, 92.669 511.772, 91.621 516.500 L 90.956 519.500 93.987 516 C 97.195 512.295, 104.644 498.311, 103.839 497.505 C 103.577 497.244, 101.979 498.486, 100.287 500.265 M 1110.536 501.951 C 1108.413 504.843, 1105.598 510.200, 1104.281 513.855 L 1101.886 520.500 1104.936 517 C 1108.592 512.806, 1115.391 499.673, 1114.810 497.929 C 1114.583 497.248, 1112.660 499.058, 1110.536 501.951 M 640.439 520.874 C 637.337 522.765, 630 530.695, 630 532.155 C 630 533.022, 633.313 531.924, 637.977 529.512 C 640.940 527.979, 642.141 526.389, 643.974 521.567 C 645.136 518.512, 644.512 518.390, 640.439 520.874 M 124.246 528.516 C 113.770 537.996, 112.013 548, 120.824 548 C 125.427 548, 128 545.642, 128.001 541.421 C 128.001 539.815, 128.694 535.180, 129.541 531.123 C 130.387 527.066, 130.912 523.579, 130.708 523.375 C 130.504 523.171, 127.596 525.484, 124.246 528.516 M 1058.386 527.467 C 1045.726 533.661, 1039.180 541.609, 1043.324 545.753 C 1044.769 547.197, 1045.269 547.085, 1049.032 544.478 C 1051.301 542.905, 1055.034 539.520, 1057.329 536.954 C 1061.338 532.471, 1068.458 522.996, 1067.812 523.003 C 1067.640 523.005, 1063.399 525.014, 1058.386 527.467 M 1292.769 526.434 C 1284.164 530.740, 1278.887 534.938, 1276.495 539.379 C 1274.648 542.809, 1274.647 542.952, 1276.455 544.950 C 1277.475 546.077, 1278.667 547, 1279.103 547 C 1280.985 547, 1292.520 536.299, 1296.575 530.791 C 1303.183 521.815, 1302.822 521.402, 1292.769 526.434 M 1394 527.458 C 1381.807 533.708, 1376.238 540.209, 1379.388 544.516 C 1380.722 546.341, 1381.035 546.213, 1386.334 541.686 C 1393.407 535.643, 1398.645 530.114, 1401.065 526.133 C 1402.113 524.410, 1402.865 523.023, 1402.735 523.051 C 1402.606 523.078, 1398.675 525.062, 1394 527.458 M 1441.257 528.322 C 1435.250 534.673, 1434.251 537.208, 1436.440 540.549 C 1440.960 547.447, 1449.729 538.597, 1448.349 528.531 C 1448.004 526.009, 1447.391 523.741, 1446.987 523.492 C 1446.584 523.243, 1444.005 525.416, 1441.257 528.322 M 785.239 526.743 C 778.078 531.580, 772.030 541.319, 773.954 544.915 C 776.547 549.759, 783.528 549.587, 786.220 544.613 C 787.264 542.683, 790.210 524.877, 789.588 524.254 C 789.441 524.107, 787.484 525.227, 785.239 526.743 M 970.995 525.634 C 966.872 528.385, 960.928 534.324, 959.418 537.200 C 956.385 542.978, 958.549 548, 964.071 548 C 968.206 548, 971 544.847, 971 540.182 C 971 538.081, 971.702 533.999, 972.560 531.111 C 974.492 524.603, 974.179 523.508, 970.995 525.634 M 1182.206 526.143 C 1178.718 528.376, 1175 534.507, 1175 538.026 C 1175 545.767, 1183.380 547.588, 1199.245 543.294 C 1206.551 541.317, 1210 538.241, 1210 533.703 C 1210 528.752, 1207.552 527.157, 1197.394 525.493 C 1186.074 523.637, 1186.122 523.635, 1182.206 526.143 M 215.593 527.476 C 208.314 530.468, 203.119 534.533, 200.530 539.260 C 198.614 542.759, 198.611 542.913, 200.405 544.895 C 202.965 547.724, 204.675 546.609, 215.959 534.750 C 226.017 524.180, 225.968 523.210, 215.593 527.476 M 477.252 531.293 C 471.504 536.009, 466.770 541.819, 467.592 543.149 C 467.881 543.617, 469.803 544, 471.863 544 C 474.797 544, 476.266 543.296, 478.650 540.750 C 486.652 532.202, 488.780 527, 484.274 527 C 483.291 527, 480.131 528.932, 477.252 531.293 M 536.030 528.113 C 530.268 530.412, 520.190 540.880, 521.577 543.125 C 522.748 545.020, 528.867 543.983, 531.982 541.362 C 534.788 539, 540.967 529.665, 540.991 527.750 C 541.003 526.758, 539.071 526.899, 536.030 528.113" stroke="none" fill="#8f8f8f" fill-rule="evenodd"/><path d="M 494.051 2.427 C 490.636 4.318, 490.150 6.131, 490.070 17.295 C 490.005 26.373, 490.177 27.268, 492.421 29.512 L 494.841 31.932 978.898 31.716 L 1462.954 31.500 1465.727 28.727 C 1468.311 26.144, 1468.499 25.393, 1468.488 17.727 C 1468.475 8.367, 1466.969 3.762, 1463.385 2.130 C 1461.553 1.295, 1335.021 1.009, 978.703 1.035 C 574.722 1.065, 496.103 1.291, 494.051 2.427 M 492.223 363.557 C 490.120 365.029, 490 365.815, 490 378.057 C 490 396.470, 487.185 395, 522.444 395 C 556.347 395, 553.640 396.109, 559.885 379.660 C 564.300 368.031, 564.961 363.583, 562.418 362.607 C 561.548 362.273, 545.898 362, 527.641 362 C 499.214 362, 494.126 362.224, 492.223 363.557 M 651.655 363.459 C 644.646 365.958, 640.820 371.056, 637.627 382.154 C 635.283 390.299, 635.462 393.832, 638.250 394.506 C 639.487 394.806, 783.150 394.927, 957.500 394.775 C 1237.259 394.532, 1274.774 394.324, 1276.833 393 C 1280.025 390.948, 1282.238 386.260, 1285.520 374.599 C 1288.207 365.052, 1288.241 364.649, 1286.462 363.349 C 1283.685 361.318, 657.355 361.426, 651.655 363.459 M 1367.275 362.971 C 1358.938 364.952, 1356.011 369.847, 1355.240 383.102 C 1354.764 391.277, 1354.856 391.786, 1357.092 393.352 C 1359.204 394.831, 1364.747 395, 1411.167 395 L 1462.888 395 1465.605 392.663 C 1468.186 390.443, 1468.333 389.832, 1468.541 380.413 C 1468.800 368.661, 1467.859 364.712, 1464.424 363.147 C 1461.532 361.830, 1372.756 361.669, 1367.275 362.971" stroke="none" fill="#e11926" fill-rule="evenodd"/></svg>